<?xml version="1.0" standalone="no"?>
<!DOCTYPE svg PUBLIC "-//W3C//DTD SVG 20010904//EN"
 "http://www.w3.org/TR/2001/REC-SVG-20010904/DTD/svg10.dtd">
<svg version="1.0" xmlns="http://www.w3.org/2000/svg"
 width="1000.000000pt" height="158.000000pt" viewBox="0 0 1000.000000 158.000000"
 preserveAspectRatio="xMidYMid meet">
<metadata>
Created by potrace 1.15, written by Peter Selinger 2001-2017
</metadata>
<g  transform="translate(0.000000,158.000000) scale(0.100000,-0.100000)"
 stroke="none">
<path fill="transparent" d="
M0 790 l0 -790 5000 0 5000 0 0 790 0 790 -5000 0 -5000 0 0 -790z
 "/>
<path fill="#FF9100" d="M4992 1265 c-56 -62 -110 -131 -118 -151 -18 -42 -13 -84 15 -129
l18 -30 -45 -58 c-36 -46 -48 -55 -57 -45 -7 7 -96 122 -199 255 -103 133
-195 244 -203 247 -26 10 -63 -21 -63 -53 0 -72 31 -126 208 -353 112 -145
114 -147 137 -132 22 14 24 13 45 -21 l22 -35 -181 -225 c-197 -245 -205 -261
-156 -310 31 -32 78 -33 108 -3 12 13 78 121 147 240 69 120 127 218 130 218
3 -1 59 -91 125 -201 122 -203 150 -239 190 -239 51 0 92 60 74 108 -4 12 -80
113 -168 226 -89 112 -161 207 -161 211 0 4 18 37 39 74 l40 68 57 -5 c81 -7
114 13 157 97 106 202 126 241 123 241 -2 0 -42 -52 -90 -115 -78 -105 -116
-137 -116 -102 0 8 32 65 71 128 105 169 104 169 -20 7 -45 -60 -86 -108 -91
-108 -31 0 -2 60 118 248 8 12 13 22 10 22 -2 0 -42 -52 -88 -115 -47 -63 -90
-114 -97 -115 -30 -1 -20 29 45 133 80 129 84 137 80 137 -2 0 -49 -52 -106
-115z"/>
<path fill="#FF9100" d="M5589 1026 c-59 -21 -107 -64 -136 -124 -24 -49 -28 -69 -28 -142 1
-72 5 -93 27 -136 34 -65 75 -99 140 -119 121 -36 232 -4 274 78 23 43 6 53
-30 18 -92 -89 -234 -60 -285 59 -34 78 -28 182 14 241 17 23 47 51 68 62 69
36 177 19 210 -33 13 -22 37 -27 37 -7 0 29 -43 79 -83 97 -49 23 -153 26
-208 6z"/>
<path fill="#FF9100" d="M5589 1026 c-59 -21 -107 -64 -136 -124 -24 -49 -28 -69 -28 -142 1
-72 5 -93 27 -136 34 -65 75 -99 140 -119 121 -36 232 -4 274 78 23 43 6 53
-30 18 -92 -89 -234 -60 -285 59 -34 78 -28 182 14 241 17 23 47 51 68 62 69
36 177 19 210 -33 13 -22 37 -27 37 -7 0 29 -43 79 -83 97 -49 23 -153 26
-208 6z"/>
<path fill="#FF9100" d="M6220 1040 h80 v-300 h320 v300 h80 v-500 h-80 v300 h-320 v-300 h-80 v500z"/>
<path fill="#FF9100" d="M8730 1031 c-69 -21 -132 -75 -165 -141 -27 -52 -31 -165 -10 -230
50 -149 224 -209 408 -140 l57 21 0 115 0 114 -100 0 -100 0 0 -35 0 -35 50 0
50 0 0 -65 0 -64 -37 -10 c-55 -16 -81 -14 -127 9 -104 50 -143 208 -80 317
57 98 203 123 274 48 23 -25 50 -33 50 -16 0 23 -50 79 -90 99 -46 23 -127 29
-180 13z"/>
<path fill="#FF9100" d="M325 1005 c-3 -11 -14 -76 -25 -145 -12 -69 -30 -174 -40 -235 -11
-60 -20 -111 -20 -112 0 -2 20 -3 44 -3 l43 0 18 118 c10 64 21 135 24 157 l7
40 22 -50 c108 -244 117 -260 148 -263 28 -3 30 0 86 130 32 73 63 147 69 163
11 28 13 21 30 -90 10 -66 20 -139 24 -162 l6 -43 50 0 c50 0 51 0 45 27 -6
29 -76 470 -76 479 0 3 -14 4 -31 2 -31 -3 -34 -8 -109 -183 -43 -99 -82 -178
-86 -175 -5 3 -35 64 -67 135 -32 72 -69 153 -81 180 -19 42 -27 50 -50 50
-19 0 -28 -6 -31 -20z"/>
<path fill="#FF9100" d="M1210 770 l0 -260 175 0 175 0 0 30 0 30 -125 0 -125 0 0 85 0 85 95
0 95 0 0 35 0 35 -95 0 -95 0 0 75 0 75 110 0 110 0 0 35 0 35 -160 0 -160 0
0 -260z"/>
<path fill="#FF9100" d="M2041 938 c-21 -46 -62 -132 -91 -193 -29 -60 -65 -138 -81 -172
l-28 -63 42 0 c41 0 42 1 66 55 l23 55 113 0 113 0 23 -55 24 -55 53 0 c28 0
52 1 52 3 0 1 -52 115 -115 252 -137 298 -136 298 -194 173z m118 -245 c1 -9
-21 -13 -75 -13 -89 0 -88 -4 -33 115 l32 70 38 -80 c21 -44 38 -86 38 -92z"/>
<path fill="#FF9100" d="M2698 1022 l-48 -3 0 -255 0 -254 170 0 170 0 0 30 0 30 -120 0 -120
0 -2 228 -3 227 -47 -3z"/>
<path fill="#FF9100" d="M3750 770 l0 -260 175 0 175 0 0 30 0 30 -125 0 -125 0 0 85 0 85 95
0 95 0 0 35 0 35 -95 0 -95 0 0 75 0 75 110 0 110 0 0 35 0 35 -160 0 -160 0
0 -260z"/>
<path fill="#FF9100" d="M7088 843 c-50 -103 -105 -221 -124 -260 l-33 -73 43 0 c42 0 43 1
65 55 l23 55 113 0 114 0 25 -55 25 -55 50 0 c28 0 51 2 51 3 0 20 -231 502
-243 509 -16 8 -29 -15 -109 -179z m128 -65 c19 -40 34 -79 34 -85 0 -9 -22
-13 -75 -13 -42 0 -75 4 -75 10 0 5 12 35 26 67 14 32 30 69 35 82 12 30 15
27 55 -61z"/>
<path fill="#FF9100" d="M7740 768 l0 -258 40 0 40 0 2 191 3 192 175 -196 c96 -108 181 -197
188 -197 9 0 12 59 12 260 l0 260 -40 0 -39 0 -3 -157 -3 -156 -141 159 -142
159 -46 0 -46 0 0 -257z"/>
<path fill="#FF9100" d="M9370 770 l0 -260 175 0 175 0 0 30 0 30 -125 0 -125 0 0 85 0 85 95
0 95 0 0 35 0 35 -95 0 -95 0 0 75 0 75 110 0 110 0 0 35 0 35 -160 0 -160 0
0 -260z"/>
</g>
</svg>
