<?xml version="1.0" standalone="no"?>
<!DOCTYPE svg PUBLIC "-//W3C//DTD SVG 20010904//EN"
 "http://www.w3.org/TR/2001/REC-SVG-20010904/DTD/svg10.dtd">
<svg version="1.0" xmlns="http://www.w3.org/2000/svg"
 width="600.000000pt" height="550.000000pt" viewBox="0 0 600.000000 550.000000"
 preserveAspectRatio="xMidYMid meet">
<metadata>
Created by potrace 1.14, written by Peter Selinger 2001-2017
</metadata>
<g transform="translate(0.000000,550.000000) scale(0.100000,-0.100000)"
fill="#FF9100" stroke="none">
<path d="M3140 5399 c-95 -12 -174 -34 -191 -55 -9 -11 -13 -38 -11 -83 9
-197 -85 -394 -261 -548 l-60 -51 -45 19 c-67 29 -172 41 -261 30 -79 -10
-221 -51 -281 -81 -22 -11 -71 -20 -135 -24 -398 -25 -861 -291 -1155 -661
-291 -367 -436 -770 -466 -1295 -29 -513 213 -1066 671 -1539 298 -307 619
-512 864 -552 43 -6 82 -22 129 -51 170 -105 261 -129 407 -108 l86 12 74 -38
c69 -34 83 -38 179 -42 116 -5 207 10 337 58 l75 27 45 -23 c152 -77 319 -70
513 21 71 33 81 35 183 35 236 1 431 68 551 188 28 27 69 54 106 69 240 98
467 260 657 469 149 164 250 316 360 539 362 736 311 1527 -139 2134 -161 218
-391 404 -582 472 -51 17 -77 35 -120 79 -89 92 -239 149 -395 150 -45 0 -56
5 -92 38 -74 69 -263 110 -453 98 l-95 -6 -3 92 c-1 51 -9 133 -18 182 -31
178 -126 429 -167 440 -41 11 -232 15 -307 5z m289 -217 c45 -91 61 -209 68
-493 l6 -237 -54 -15 c-29 -9 -54 -15 -54 -14 -1 1 2 58 7 127 14 188 5 413
-18 479 -34 97 -62 72 -43 -37 21 -121 -7 -475 -45 -566 -11 -26 -21 -34 -46
-38 -31 -5 -32 -4 -26 26 54 270 67 578 23 563 -7 -2 -16 -30 -20 -63 -26
-201 -52 -339 -78 -420 -36 -113 -53 -137 -96 -132 l-31 3 29 95 c93 308 141
575 110 620 -18 26 -31 -2 -41 -91 -19 -150 -106 -443 -171 -571 -27 -53 -32
-58 -62 -58 -45 0 -101 17 -128 39 l-23 19 66 71 c73 79 129 179 177 315 31
88 81 310 81 359 l0 25 128 4 c77 3 143 11 167 20 22 9 43 14 48 11 4 -2 16
-21 26 -41z m-989 -633 l51 -11 -31 -34 c-45 -52 -42 -93 11 -138 134 -115
410 -152 694 -95 192 39 428 136 449 185 8 19 23 24 96 33 192 25 318 8 384
-50 32 -27 43 -30 148 -39 186 -17 252 -46 319 -144 18 -27 41 -41 104 -65
481 -184 845 -909 799 -1596 l-8 -130 -8 134 c-24 441 -187 868 -449 1176
-128 152 -338 312 -402 307 -17 -2 -33 -4 -35 -6 -1 -2 50 -57 116 -122 452
-452 660 -958 614 -1493 -37 -422 -217 -900 -497 -1318 -48 -73 -81 -110 -128
-146 -78 -58 -198 -121 -272 -142 -30 -9 -55 -20 -55 -25 0 -15 -52 -71 -103
-111 -57 -45 -170 -84 -272 -94 -68 -7 -191 5 -267 26 l-38 10 28 42 c16 23
37 57 47 76 l17 34 -51 -7 c-49 -6 -57 -12 -149 -104 -104 -104 -187 -161
-249 -169 -36 -5 -85 8 -181 48 -29 12 -40 11 -135 -22 l-102 -36 -85 17
c-258 54 -399 151 -413 285 l-4 40 -58 3 -58 3 5 -53 c5 -62 46 -151 96 -209
19 -22 31 -43 28 -46 -16 -16 -125 21 -256 86 -138 69 -144 71 -218 71 -95 0
-183 18 -289 59 -108 42 -148 73 -244 188 -340 409 -521 885 -536 1408 -8 288
24 506 113 766 73 213 207 469 329 630 39 52 43 62 33 79 -7 11 -18 20 -23 20
-22 0 -180 -209 -277 -366 -397 -644 -465 -1377 -181 -1949 56 -111 21 -62
-46 65 -111 212 -188 442 -227 675 -25 150 -23 415 5 576 62 360 200 684 415
974 88 119 314 339 424 414 187 126 383 199 547 202 69 1 90 6 152 36 118 56
225 73 323 52z"/>
<path d="M1654 4130 c-66 -4 -130 -13 -142 -19 -25 -13 -30 -52 -9 -69 7 -6
71 -19 142 -28 115 -16 132 -20 162 -47 22 -19 38 -47 48 -81 10 -33 28 -237
50 -566 19 -283 35 -522 35 -532 0 -10 16 -22 47 -32 25 -9 48 -15 49 -13 6 6
14 135 34 532 11 220 22 427 25 460 14 147 48 246 95 270 19 10 113 18 310 29
237 13 286 18 301 32 22 20 24 45 7 62 -13 13 -934 15 -1154 2z"/>
<path d="M2970 3915 c0 -117 -3 -145 -14 -145 -20 0 -26 33 -26 163 0 107 -8
142 -24 101 -3 -9 -6 -76 -6 -149 l0 -133 40 -53 c41 -54 41 -54 35 -124 -9
-118 -27 -505 -27 -594 -1 -80 1 -86 26 -108 34 -29 65 -29 101 -1 l28 22 -6
185 c-3 102 -13 273 -22 379 l-16 193 30 48 c46 76 53 112 44 240 -5 73 -12
116 -20 118 -9 3 -12 -32 -12 -133 -1 -125 -9 -172 -24 -147 -5 8 -27 219 -27
261 0 6 -4 12 -10 12 -6 0 -10 -51 -10 -134 0 -74 -4 -137 -9 -140 -13 -8 -19
30 -27 167 -3 64 -10 117 -15 117 -5 0 -9 -65 -9 -145z"/>
<path d="M4313 3883 c-25 -27 -106 -117 -181 -200 -76 -85 -144 -153 -153
-153 -28 0 -31 30 -23 210 l7 170 -83 0 -83 0 7 -117 c3 -65 11 -237 16 -383
12 -315 19 -451 26 -462 3 -4 16 -8 29 -8 31 0 39 29 55 205 16 160 21 175 57
175 23 0 60 -33 213 -191 l185 -191 33 35 34 35 -133 178 c-73 99 -141 192
-151 209 -37 61 -28 85 107 293 69 106 125 199 125 205 0 15 -20 37 -34 37 -5
0 -29 -21 -53 -47z"/>
<path d="M2352 3871 c-122 -20 -127 -35 -118 -391 8 -318 15 -498 22 -556 8
-67 58 -93 84 -44 5 10 19 175 30 366 23 402 26 437 45 474 17 33 33 40 87 40
53 0 105 -26 123 -61 22 -41 19 -134 -5 -185 -19 -38 -43 -64 -163 -172 -22
-20 -37 -43 -37 -56 0 -15 68 -103 196 -254 107 -128 199 -232 203 -232 4 0
23 17 43 38 l36 37 -79 125 c-44 69 -104 166 -135 217 -65 106 -66 101 28 201
78 84 112 151 112 222 0 102 -66 182 -178 215 -61 19 -221 27 -294 16z"/>
<path d="M3410 3774 c-63 -20 -134 -75 -166 -130 -98 -168 -46 -433 108 -544
104 -75 304 -93 338 -30 15 28 -9 48 -72 59 -174 31 -258 158 -246 372 7 133
47 185 139 183 51 -2 142 -39 195 -79 18 -14 35 -25 38 -25 3 0 6 42 6 94 l0
93 -57 12 c-77 15 -228 13 -283 -5z"/>
<path d="M3403 2810 c-28 -11 -31 -50 -5 -73 20 -18 90 -24 529 -43 119 -5
159 -11 181 -24 62 -38 95 -160 106 -390 4 -69 11 -213 16 -320 5 -107 12
-251 15 -320 3 -69 8 -158 11 -197 l6 -73 53 0 54 0 5 53 c5 46 46 642 62 892
12 199 38 296 90 330 15 9 83 23 175 35 84 11 158 25 165 31 8 6 14 22 14 36
0 44 -42 52 -342 63 -337 12 -1105 12 -1135 0z"/>
<path d="M2990 2591 c-77 -42 -85 -92 -96 -576 -7 -345 3 -518 34 -589 52
-115 177 -140 464 -92 142 25 316 61 323 68 2 2 -2 28 -9 58 -11 49 -14 55
-36 53 -234 -18 -354 -22 -424 -13 -144 18 -196 68 -196 188 0 73 17 120 54
149 34 27 151 58 309 82 70 11 134 25 142 31 19 15 19 44 2 58 -7 6 -126 19
-266 29 l-253 17 4 120 c5 128 14 160 60 204 39 36 79 42 313 53 121 5 226 12
233 14 14 5 17 91 3 99 -17 11 -405 57 -516 62 -96 4 -115 2 -145 -15z"/>
<path d="M2140 2560 c-19 -5 -45 -20 -57 -35 -22 -25 -23 -33 -23 -208 1 -248
16 -541 30 -566 15 -29 65 -28 84 2 13 21 16 56 42 462 13 214 18 232 64 235
95 7 140 -20 140 -85 0 -62 -43 -118 -142 -185 -43 -29 -58 -57 -47 -85 4 -11
86 -98 183 -194 l175 -174 45 37 45 37 -116 157 c-64 86 -118 163 -120 172 -2
9 20 36 54 66 76 67 117 141 111 199 -14 116 -129 176 -333 174 -55 -1 -116
-5 -135 -9z"/>
<path d="M1579 2394 c-62 -19 -141 -91 -173 -157 -109 -227 11 -455 251 -475
36 -3 82 1 108 8 126 35 227 218 212 382 -16 181 -212 300 -398 242z m155
-138 c87 -36 118 -126 85 -249 -15 -55 -70 -112 -123 -127 -94 -26 -215 44
-232 135 -16 88 16 180 79 226 33 24 50 29 99 29 32 0 74 -6 92 -14z"/>
<path d="M3665 2304 c-66 -8 -126 -16 -132 -19 -9 -3 -13 -26 -13 -64 l0 -60
158 2 c128 1 167 -2 210 -17 60 -20 92 -59 92 -112 0 -30 -1 -30 -72 -42 -226
-39 -353 -136 -333 -255 16 -92 101 -135 245 -122 47 4 107 8 135 9 l50 1 25
-50 c38 -76 85 -73 101 6 11 59 11 428 -1 507 -28 199 -142 252 -465 216z
m285 -424 c23 -23 28 -97 9 -132 -22 -40 -125 -63 -162 -35 -44 32 -37 119 14
161 39 33 109 36 139 6z"/>
<path d="M3007 1183 c-30 -37 -37 -52 -32 -74 11 -50 -10 -38 -69 37 -57 74
-78 86 -84 48 -3 -23 84 -144 104 -144 21 0 18 -6 -43 -81 -51 -64 -55 -72
-40 -86 23 -24 41 -11 78 56 19 34 36 61 39 61 3 0 22 -27 43 -61 26 -42 42
-59 54 -57 32 6 25 37 -22 98 -52 68 -54 92 -10 100 23 4 36 16 57 55 l27 50
-27 14 c-15 8 -29 18 -32 22 -3 4 -22 -13 -43 -38z"/>
<path d="M4095 1118 c-33 -17 -45 -40 -45 -80 0 -62 51 -98 115 -80 26 7 30
13 33 50 l3 42 -36 0 c-30 0 -36 -3 -33 -17 2 -10 10 -17 16 -15 15 3 16 -24
2 -33 -21 -13 -60 24 -60 55 0 39 39 67 70 50 31 -17 39 -2 11 21 -26 21 -47
23 -76 7z"/>
<path d="M1646 1103 c-2 -10 -7 -38 -11 -63 -4 -25 -9 -53 -11 -62 -4 -13 0
-18 14 -18 15 0 22 9 27 38 l7 37 15 -37 c8 -21 22 -38 30 -38 8 0 22 17 31
38 l17 37 3 -37 c3 -31 7 -38 24 -38 19 0 20 4 13 67 -4 36 -9 72 -12 80 -10
26 -32 12 -49 -32 -9 -25 -20 -45 -24 -45 -4 0 -15 20 -24 45 -18 46 -41 59
-50 28z"/>
<path d="M3364 1106 c-3 -7 -4 -42 -2 -77 3 -58 5 -64 26 -67 19 -3 22 1 22
32 0 32 3 36 25 36 22 0 25 -4 25 -35 0 -28 4 -35 20 -35 18 0 20 7 20 80 0
73 -2 80 -20 80 -16 0 -20 -7 -20 -30 0 -25 -4 -30 -25 -30 -21 0 -25 5 -25
30 0 23 -4 30 -20 30 -11 0 -23 -6 -26 -14z"/>
<path d="M3810 1040 c0 -73 2 -80 20 -80 17 0 20 7 20 51 l0 51 46 -51 c25
-28 50 -51 55 -51 5 0 9 36 9 80 0 64 -3 80 -15 80 -11 0 -15 -12 -15 -42 l-1
-43 -40 43 c-22 23 -49 42 -59 42 -18 0 -20 -7 -20 -80z"/>
</g>
</svg>
